 <svg version="1.0" xmlns="http://www.w3.org/2000/svg"  width="352.000000pt" height="153.000000pt" viewBox="0 0 352.000000 153.000000"  preserveAspectRatio="xMidYMid meet">  <g transform="translate(0.000000,153.000000) scale(0.100000,-0.100000)" fill="#000000" stroke="none"> <path d="M451 1328 c-9 -20 -63 -190 -247 -778 -31 -96 -66 -205 -80 -243 l-24 -67 161 2 161 3 35 120 c19 66 50 176 68 245 18 69 45 163 58 209 l25 83 -25 82 c-14 44 -42 144 -62 220 -21 77 -43 142 -49 144 -6 2 -16 -7 -21 -20z m27 -103 c-3 -13 -1 -22 3 -19 5 3 9 -5 9 -18 0 -13 5 -29 12 -36 7 -7 9 -12 5 -12 -3 0 -2 -12 4 -27 16 -41 50 -164 55 -198 3 -28 -4 -62 -40 -185 -8 -25 -21 -74 -31 -110 -9 -36 -23 -83 -30 -105 -8 -22 -17 -57 -21 -78 -3 -20 -10 -40 -15 -43 -5 -3 -9 -18 -9 -34 0 -75 -26 -90 -155 -90 -120 0 -120 1 -76 131 15 46 28 88 28 92 1 4 5 20 11 35 25 67 72 222 72 237 0 10 5 13 12 9 6 -4 8 -3 5 3 -5 9 35 151 60 213 4 8 8 24 9 35 1 11 11 40 22 64 11 24 18 51 14 59 -4 11 -1 13 7 7 10 -5 11 -2 7 13 -4 12 -1 26 8 35 8 8 13 17 10 20 -8 8 5 27 18 27 6 0 8 -11 6 -25z"/> <path d="M555 1342 c-2 -2 0 -14 5 -25 5 -12 41 -137 81 -277 39 -140 79 -279 90 -307 l19 -53 -69 0 -69 0 -26 -102 c-15 -57 -30 -112 -32 -123 -5 -19 -1 -20 127 -20 l132 0 13 -40 c7 -22 20 -66 29 -98 l16 -57 159 0 c98 0 160 4 160 10 0 5 -13 49 -29 97 -35 106 -86 267 -176 553 -38 118 -84 266 -104 328 l-37 113 -143 2 c-78 1 -144 0 -146 -1z m275 -51 c5 -11 10 -31 10 -45 0 -14 5 -26 10 -26 6 0 10 -8 10 -17 0 -10 9 -45 20 -78 64 -196 79 -243 85 -272 4 -18 11 -33 17 -33 6 0 8 -11 6 -25 -3 -14 -2 -25 2 -25 4 0 12 -19 19 -42 39 -137 54 -187 66 -218 7 -19 21 -62 30 -95 10 -33 20 -67 23 -75 3 -8 7 -27 9 -42 l3 -27 -114 0 c-127 0 -138 5 -151 69 -7 35 -41 100 -59 112 -5 3 -50 9 -100 13 -131 9 -128 8 -110 57 8 22 14 51 14 65 0 38 30 62 82 65 25 2 44 6 42 9 -2 4 3 9 10 12 18 7 14 51 -14 132 -11 33 -20 70 -20 83 0 12 -5 22 -10 22 -6 0 -10 6 -9 13 1 6 0 19 -3 27 -20 52 -66 245 -61 253 3 6 1 7 -5 3 -8 -5 -13 2 -14 21 0 15 -2 40 -3 56 l-2 27 103 0 c92 0 104 -2 114 -19z"/> <path d="M1540 1336 c-115 -30 -173 -75 -214 -165 -36 -81 -47 -171 -47 -381 1 -267 23 -371 97 -459 51 -61 132 -87 310 -98 l104 -6 0 121 0 122 -45 0 c-61 0 -98 21 -121 67 -17 35 -19 70 -22 426 -2 213 -6 386 -10 386 -4 -1 -27 -7 -52 -13z m29 -389 c2 -327 7 -393 31 -422 7 -8 9 -15 5 -15 -3 0 7 -11 23 -25 17 -14 35 -25 42 -25 6 0 8 -5 4 -12 -4 -6 -3 -8 4 -4 13 8 64 -11 74 -27 4 -7 8 -38 8 -69 0 -75 -16 -92 -79 -84 -70 9 -154 18 -168 19 -7 0 -13 4 -13 9 0 4 -8 8 -18 8 -23 0 -92 57 -92 76 0 8 -6 14 -12 14 -7 0 -20 22 -29 50 -8 27 -11 46 -6 43 5 -3 1 7 -9 23 -17 26 -19 52 -19 294 0 234 2 270 18 305 46 101 61 126 73 121 9 -3 11 1 7 11 -4 11 -2 14 5 9 7 -4 12 -1 12 7 0 7 25 22 58 34 48 16 59 17 68 6 8 -9 12 -116 13 -346z"/> <path d="M1665 1220 c0 -126 1 -130 20 -122 27 10 326 9 403 -1 l62 -9 0 115 c0 111 -1 115 -23 121 -55 13 -212 26 -332 26 l-130 0 0 -130z m220 95 c61 -3 119 -5 130 -5 11 0 39 -6 63 -12 l42 -12 0 -78 0 -77 -197 5 c-109 3 -204 7 -211 10 -9 3 -12 25 -10 86 3 78 4 82 28 88 14 4 30 5 35 4 6 -2 60 -6 120 -9z"/> <path d="M2270 1343 c0 -1 59 -95 132 -210 72 -114 146 -233 165 -263 19 -30 70 -111 113 -180 44 -69 126 -198 182 -287 l102 -163 182 0 183 0 -126 197 c-69 109 -140 221 -158 248 -17 28 -71 113 -120 190 -131 209 -177 282 -233 369 -28 44 -53 83 -54 87 -2 6 -368 18 -368 12z m390 -90 c0 -2 -5 -1 -11 3 -18 10 6 -28 30 -50 12 -11 21 -23 21 -29 0 -5 9 -22 21 -38 11 -16 17 -34 13 -40 -4 -8 -3 -9 4 -5 7 4 22 -13 39 -45 16 -28 38 -64 51 -79 12 -15 22 -33 22 -39 0 -7 11 -24 25 -39 14 -15 25 -32 25 -39 0 -7 5 -13 11 -13 5 0 8 -4 5 -9 -3 -5 1 -11 9 -15 8 -3 15 -10 15 -16 0 -6 11 -26 24 -43 38 -51 86 -136 86 -154 0 -9 3 -13 6 -10 4 3 27 -26 53 -66 25 -40 49 -74 53 -75 5 -2 6 -8 2 -13 -3 -5 0 -9 6 -9 6 0 8 -4 5 -10 -3 -5 -2 -10 2 -10 8 0 38 -45 44 -65 1 -5 9 -16 16 -23 7 -7 13 -23 13 -35 0 -18 -2 -19 -10 -7 -5 8 -10 11 -10 5 0 -6 -46 -10 -119 -9 -106 1 -123 4 -147 23 -14 11 -21 21 -13 21 8 0 5 6 -7 15 -10 8 -15 15 -11 15 4 0 -1 9 -11 20 -10 11 -29 40 -41 65 -12 25 -29 48 -37 53 -9 5 -16 16 -18 25 -1 9 -13 29 -27 43 -13 15 -18 24 -12 20 9 -5 11 -2 7 8 -3 8 -12 17 -20 20 -8 3 -14 10 -14 15 0 9 -59 105 -80 128 -5 7 -10 17 -10 23 0 5 -5 10 -11 10 -6 0 -8 7 -5 16 3 8 2 12 -4 9 -6 -3 -10 0 -10 8 0 8 -7 20 -15 27 -9 7 -14 19 -11 26 3 8 0 11 -10 7 -8 -3 -14 -2 -12 3 3 12 -52 104 -63 104 -4 0 -6 8 -2 18 3 9 3 14 -2 10 -9 -8 -56 73 -48 84 2 4 -3 5 -11 2 -10 -4 -16 -1 -16 8 0 8 -21 47 -46 86 -25 39 -43 76 -39 82 4 6 1 9 -7 8 -7 -2 -13 4 -13 12 0 12 22 16 120 20 l120 5 38 -29 c20 -16 37 -31 37 -33z"/> <path d="M3138 1343 l-168 -3 -29 -59 c-17 -32 -44 -81 -60 -110 l-31 -51 66 -101 c36 -56 73 -117 83 -135 l19 -34 87 142 c115 187 163 265 192 309 24 36 29 51 16 47 -5 -1 -83 -4 -175 -5z m112 -48 c0 -8 -4 -15 -10 -15 -5 0 -9 -3 -9 -7 4 -23 -2 -43 -11 -38 -5 3 -10 -1 -10 -9 0 -9 -5 -16 -11 -16 -5 0 -7 -4 -4 -10 3 -5 1 -10 -5 -10 -6 0 -13 -8 -17 -17 -3 -10 -15 -29 -27 -42 -12 -13 -15 -21 -8 -17 7 4 -3 -16 -23 -46 -19 -29 -44 -71 -55 -93 -10 -22 -19 -33 -20 -25 -1 9 -5 6 -11 -8 -5 -13 -13 -20 -19 -17 -6 4 -8 11 -5 16 4 5 1 9 -5 9 -6 0 -15 10 -20 23 -10 22 -27 48 -63 99 -11 16 -16 37 -13 54 2 16 5 35 5 42 1 7 6 10 13 6 8 -5 9 -2 5 9 -3 10 -2 17 4 17 6 0 8 4 5 9 -3 4 2 18 12 30 9 11 25 32 34 45 17 23 22 24 143 25 106 1 125 -1 125 -14z"/> <path d="M1744 891 c-2 -2 -4 -54 -4 -116 l0 -111 61 4 60 4 -3 -220 -3 -220 75 5 c41 3 109 11 150 17 l75 11 3 312 2 312 -206 3 c-113 2 -208 1 -210 -1z m374 -291 c3 -282 0 -315 -26 -316 -9 -1 -56 -4 -103 -8 l-87 -8 -5 28 c-3 16 -9 64 -12 108 -5 61 -4 81 7 87 8 6 9 12 3 17 -6 4 -11 35 -12 69 -1 87 -8 100 -56 116 l-42 14 -3 77 -3 76 168 -2 168 -3 3 -255z"/> <path d="M2549 712 c-9 -15 -60 -99 -114 -187 -53 -88 -115 -188 -136 -223 l-38 -62 175 2 175 3 61 116 60 116 -77 124 c-43 68 -80 127 -84 131 -3 4 -13 -5 -22 -20z m37 -54 c5 -7 3 -8 -7 -3 -8 5 2 -11 22 -36 41 -51 60 -84 54 -93 -3 -3 -2 -4 2 -1 10 8 32 -28 33 -52 0 -13 -4 -23 -10 -23 -5 0 -10 -7 -10 -16 0 -24 -70 -143 -90 -154 -23 -12 -220 -13 -238 -1 -11 7 -10 16 7 49 11 22 25 43 30 47 5 3 24 31 42 63 18 31 40 63 48 70 13 11 13 12 1 6 -8 -5 -5 4 8 20 12 16 19 32 16 37 -3 5 2 9 11 9 9 0 13 5 10 10 -3 6 -2 10 2 10 5 0 17 16 27 35 20 37 30 42 42 23z"/> </g> </svg> 
